<?xml version="1.0" encoding="UTF-8"?>
<svg version="1.1" xmlns="http://www.w3.org/2000/svg" width="412" height="219">
<path d="M0 0 C135.96 0 271.92 0 412 0 C412 72.27 412 144.54 412 219 C276.04 219 140.08 219 0 219 C0 146.73 0 74.46 0 0 Z " fill="#131313" transform="translate(0,0)"/>
<path d="M0 0 C1.98 0.495 1.98 0.495 4 1 C3.39681814 5.5758624 2.16552149 9.47671609 0.4375 13.75 C-1.34673668 17.75912296 -1.34673668 17.75912296 -2 22 C3.94 22.33 9.88 22.66 16 23 C15.67 23.99 15.34 24.98 15 26 C5.1 26.495 5.1 26.495 -5 27 C-12.28073188 43.48911326 -12.28073188 43.48911326 -19.0625 60.1875 C-19.34875244 60.92210449 -19.63500488 61.65670898 -19.92993164 62.41357422 C-21.82678057 67.35928503 -23.14039237 71.45331851 -23.0625 76.75 C-23.05347656 77.54921875 -23.04445313 78.3484375 -23.03515625 79.171875 C-23.02355469 79.77515625 -23.01195312 80.3784375 -23 81 C-13.39059138 81.60058804 -7.53769316 78.0192082 -0.296875 72.03515625 C2.03555571 70.02233896 2.03555571 70.02233896 4.171875 67.74609375 C6 66 6 66 8 66 C7.59441452 70.85820869 5.25839813 73.33251234 1.875 76.5625 C1.12947876 77.28928955 1.12947876 77.28928955 0.36889648 78.03076172 C-7.22648282 85.26527737 -13.74990965 87.4364324 -24.13671875 87.34765625 C-27 87 -27 87 -30.25 84.8125 C-32.15856354 81.74516573 -32.16449372 80.49549147 -32 77 C-32.92941406 77.5053125 -33.85882813 78.010625 -34.81640625 78.53125 C-36.06470897 79.18825143 -37.31342949 79.84445945 -38.5625 80.5 C-39.17158203 80.83386719 -39.78066406 81.16773438 -40.40820312 81.51171875 C-44.73137084 83.75336127 -48.0251792 84.54114244 -53 84 C-55 82 -55 82 -55.25 78.25 C-55.16876295 74.54017494 -54.38476789 71.46191974 -53 68 C-60.68703562 71.92892932 -67.160219 77.51036904 -73.52734375 83.296875 C-76.447125 85.30797236 -77.50656657 85.33537253 -80.9375 84.75 C-83.95922776 84.28304653 -86.29630981 84.02194887 -89.375 84.25 C-92 84 -92 84 -94.375 81.625 C-96 79 -96 79 -96 77 C-97.04800781 77.74056641 -97.04800781 77.74056641 -98.1171875 78.49609375 C-99.02726563 79.13675781 -99.93734375 79.77742188 -100.875 80.4375 C-101.77992188 81.07558594 -102.68484375 81.71367187 -103.6171875 82.37109375 C-106.82060569 84.56097143 -108.59521366 85.17428992 -112.4375 85.25 C-113.21996094 85.27578125 -114.00242187 85.3015625 -114.80859375 85.328125 C-117 85 -117 85 -118.78515625 83.734375 C-120 82 -120 82 -120 78 C-120.94359375 78.28875 -121.8871875 78.5775 -122.859375 78.875 C-133.86945704 82.11071595 -143.60014127 82.75382442 -155 81 C-155.45890625 81.85464844 -155.9178125 82.70929688 -156.390625 83.58984375 C-157.00421875 84.69457031 -157.6178125 85.79929687 -158.25 86.9375 C-158.85328125 88.03964844 -159.4565625 89.14179688 -160.078125 90.27734375 C-162 93 -162 93 -164.234375 93.87890625 C-165.10835937 93.93884766 -165.10835937 93.93884766 -166 94 C-165.49202991 89.6822542 -164.80317221 85.96697886 -163 82 C-164.11375 82.495 -165.2275 82.99 -166.375 83.5 C-171.16130782 85.30341241 -175.92999319 85.72563295 -181 85 C-183 83 -183 83 -183.125 79.375 C-183.08375 78.26125 -183.0425 77.1475 -183 76 C-183.556875 76.28875 -184.11375 76.5775 -184.6875 76.875 C-190.10954182 79.51275007 -193.97436836 80.53800282 -200 80 C-201.59301843 78.40698157 -201.17030943 76.76633118 -201.1875 74.5625 C-201.14881484 69.200737 -200.2396087 64.20192937 -199 59 C-209.16614388 63.67731148 -218.47618362 72.7638486 -224.0625 82.5 C-224.701875 83.325 -225.34125 84.15 -226 85 C-229.25 85.375 -229.25 85.375 -232 85 C-231.45734262 79.57342622 -229.53634391 75.74541763 -227 71 C-230.63 72.65 -234.26 74.3 -238 76 C-237.86980469 76.95261719 -237.73960937 77.90523438 -237.60546875 78.88671875 C-236.48328087 89.09128705 -236.48328087 89.09128705 -238.8125 93.1875 C-246.90773228 97.7906713 -255.72920788 99.32625638 -265 98 C-266.87890625 96.7890625 -266.87890625 96.7890625 -268 95 C-268.43359375 92.55859375 -268.43359375 92.55859375 -268 90 C-266.34765625 87.97265625 -266.34765625 87.97265625 -264.0625 86.0625 C-263.25039063 85.37929687 -262.43828125 84.69609375 -261.6015625 83.9921875 C-258.41035857 81.54847278 -255.10289549 79.38275304 -251.65234375 77.32421875 C-251.10707031 76.88722656 -250.56179687 76.45023437 -250 76 C-250 75.01 -250 74.02 -250 73 C-250.66 73.886875 -251.32 74.77375 -252 75.6875 C-255.8677787 80.33764989 -260.99678819 83.88446064 -267 85 C-268.51696689 85.13671105 -270.03969915 85.21908019 -271.5625 85.25 C-272.32691406 85.27578125 -273.09132813 85.3015625 -273.87890625 85.328125 C-276 85 -276 85 -277.7734375 83.703125 C-279 82 -279 82 -279.0625 78.5 C-278.02958469 72.1851314 -274.51218563 65.51218563 -270 61 C-268.68 61 -267.36 61 -266 61 C-266.49686686 65.84445187 -268.06062319 69.62313462 -270.16015625 73.94921875 C-271.189488 76.09335543 -271.189488 76.09335543 -271 79 C-264.83492988 78.52576384 -258.72879662 75.76120513 -254.35546875 71.3359375 C-253 70 -253 70 -251 70 C-251.33 69.13375 -251.66 68.2675 -252 67.375 C-253.02467553 63.91672009 -253.45602681 61.57221002 -253 58 C-251.20006226 55.30009338 -249.916227 53.4581135 -247 52 C-242.87003618 51.58540904 -239.20809734 51.41068422 -235.4375 53.25 C-234 55 -234 55 -234 59 C-237.8063457 58.32829194 -241.35206816 57.27253436 -245 56 C-245.35050464 61.841744 -245.16727335 65.8531808 -242 71 C-240.49890232 70.5662812 -238.99918823 70.12777365 -237.5 69.6875 C-236.6646875 69.44386719 -235.829375 69.20023437 -234.96875 68.94921875 C-233.9890625 68.63597656 -233.009375 68.32273437 -232 68 C-231.36924561 67.88857666 -230.73849121 67.77715332 -230.08862305 67.66235352 C-226.39870952 66.77763741 -224.52439829 65.7684183 -222.35205078 62.58520508 C-220.69445918 59.2931845 -219.23458228 55.96294297 -217.8125 52.5625 C-217.26678013 51.31568255 -216.71806271 50.07017322 -216.16650391 48.82592773 C-215.0157479 46.22353397 -213.87827599 43.61590968 -212.74951172 41.00390625 C-210.1804723 35.08809616 -207.45497607 29.24485598 -204.72958374 23.39987183 C-203.88990424 21.59454442 -203.05779616 19.78570165 -202.22583008 17.97680664 C-201.71560303 16.87199951 -201.20537598 15.76719238 -200.6796875 14.62890625 C-200.23351074 13.66025635 -199.78733398 12.69160645 -199.32763672 11.69360352 C-198.00477406 9.00968596 -196.70425298 6.46209928 -195 4 C-192.3125 3.6875 -192.3125 3.6875 -190 4 C-190.56501615 8.16064296 -191.51479533 11.62615945 -193.22265625 15.45703125 C-193.67503662 16.47933838 -194.12741699 17.50164551 -194.59350586 18.55493164 C-195.07827393 19.6299292 -195.56304199 20.70492676 -196.0625 21.8125 C-196.55693604 22.92165771 -197.05137207 24.03081543 -197.56079102 25.17358398 C-202.80768068 36.89868094 -208.23003076 48.52346777 -214 60 C-212.56161448 59.20994338 -211.12432585 58.41788955 -209.6875 57.625 C-208.88699219 57.18414062 -208.08648437 56.74328125 -207.26171875 56.2890625 C-205.46472057 55.26486665 -203.72099292 54.14732862 -202 53 C-198.46049143 52.54814784 -196.66673285 52.57890557 -193.625 54.5 C-190.89345703 58.70237381 -191.59963039 62.811539 -192.4609375 67.51953125 C-192.93316931 69.69248197 -193.44198619 71.84766103 -194 74 C-186.66224472 72.36992607 -186.66224472 72.36992607 -180 69 C-178.88133245 67.28316992 -178.88133245 67.28316992 -177.9375 65.375 C-176 62 -176 62 -173.25 61.0625 C-172.5075 61.041875 -171.765 61.02125 -171 61 C-169.70894689 64.87315934 -170.61079094 65.84572631 -172.375 69.4375 C-173.92307372 72.61580778 -175.29381892 75.52657446 -176 79 C-168.83673895 77.86297444 -163.41485294 75.96416239 -158 71 C-155.4168149 67.19166791 -153.59726707 63.14307016 -151.75 58.9375 C-151.21060791 57.76533936 -150.67121582 56.59317871 -150.11547852 55.38549805 C-148.67555691 52.25319239 -147.26844186 49.10726338 -145.87017822 45.95617676 C-144.39934713 42.64972123 -142.90680813 39.35306237 -141.41796875 36.0546875 C-139.70572165 32.25658592 -137.99834342 28.45657909 -136.31347656 24.64624023 C-134.88774368 21.42519876 -133.45061473 18.20990492 -132 15 C-131.6169873 14.15228027 -131.23397461 13.30456055 -130.83935547 12.43115234 C-128.33344018 7.12125097 -128.33344018 7.12125097 -125.25 6 C-124.5075 6 -123.765 6 -123 6 C-123.43326584 13.46480944 -126.02147753 19.50922718 -129 26.3125 C-129.48968262 27.45227295 -129.97936523 28.5920459 -130.48388672 29.76635742 C-133.89340606 37.64114401 -137.46198023 45.43363179 -141.26953125 53.12426758 C-143.0425144 56.74397087 -144.47501883 59.95128155 -145 64 C-144.04738281 63.4946875 -143.09476563 62.989375 -142.11328125 62.46875 C-140.84662996 61.81196785 -139.57968735 61.1557473 -138.3125 60.5 C-137.68666016 60.16613281 -137.06082031 59.83226562 -136.41601562 59.48828125 C-132.79518683 57.6304738 -130.08595745 56.56249786 -126 57 C-126 57.99 -126 58.98 -126 60 C-126.59538574 60.31227539 -127.19077148 60.62455078 -127.80419922 60.94628906 C-130.50084925 62.36912609 -133.18786279 63.80928387 -135.875 65.25 C-136.81214844 65.74113281 -137.74929687 66.23226562 -138.71484375 66.73828125 C-139.61074219 67.22167969 -140.50664062 67.70507812 -141.4296875 68.203125 C-142.67081299 68.86296387 -142.67081299 68.86296387 -143.93701172 69.53613281 C-146.21872553 71.15520453 -146.99187228 72.42420957 -148 75 C-143.67558734 77.88294178 -140.07925925 77.56893187 -135 77 C-128.65786802 75.38462636 -122.77722392 73.04064417 -117 70 C-116.34 70 -115.68 70 -115 70 C-114.78085937 69.42507812 -114.56171875 68.85015625 -114.3359375 68.2578125 C-112.57652499 65.28430246 -110.44061448 63.86027241 -107.625 61.875 C-106.19027344 60.85019531 -106.19027344 60.85019531 -104.7265625 59.8046875 C-100.81560397 57.21605879 -98.17924493 55.71156977 -93.4375 55.6875 C-92.67308594 55.67074219 -91.90867187 55.65398437 -91.12109375 55.63671875 C-89 56 -89 56 -87.16015625 57.26953125 C-86 59 -86 59 -86.3125 61.1875 C-86.6528125 62.0846875 -86.6528125 62.0846875 -87 63 C-87.81791016 62.78730469 -87.81791016 62.78730469 -88.65234375 62.5703125 C-93.4562947 61.63415796 -96.4680088 61.76293402 -100.6875 64.375 C-105.87174661 68.24275666 -109.13552671 73.27105341 -112 79 C-105.41207858 76.95042445 -101.47794451 72.91845732 -96.6484375 68.08203125 C-94 66 -94 66 -91.1640625 65.69921875 C-90.09285156 65.84810547 -90.09285156 65.84810547 -89 66 C-87.70323188 70.61073111 -88.28890861 74.33840089 -89 79 C-81.88287326 77.33933709 -78.14160821 74.98992924 -74 69 C-73.43925781 68.18917969 -72.87851562 67.37835938 -72.30078125 66.54296875 C-70.83872509 64.37885299 -69.40694067 62.20021572 -68 60 C-66.68 60.33 -65.36 60.66 -64 61 C-64 62.98 -64 64.96 -64 67 C-63.21496094 66.55527344 -62.42992187 66.11054688 -61.62109375 65.65234375 C-51.96982768 60.45368632 -51.96982768 60.45368632 -47.8125 61.0625 C-45 62 -45 62 -44 63 C-44.44546341 68.45692683 -45.95504731 72.93207377 -48 78 C-46.26848028 77.40261053 -44.53987853 76.79676033 -42.8125 76.1875 C-41.84957031 75.85105469 -40.88664063 75.51460938 -39.89453125 75.16796875 C-35.13230616 73.24636915 -32.19182066 71.95090612 -29.99536133 67.15869141 C-29.34097774 65.56302507 -28.70417531 63.96007289 -28.08203125 62.3515625 C-27.5670533 61.07724869 -27.5670533 61.07724869 -27.04167175 59.77719116 C-25.94995093 57.06564451 -24.88102594 54.34575914 -23.8125 51.625 C-23.08286825 49.80148723 -22.35176407 47.97856287 -21.61914062 46.15625 C-20.00390065 42.13002393 -18.40287179 38.09848857 -16.81428528 34.06167603 C-15.88344823 31.70490442 -14.94108008 29.35270021 -14 27 C-18.95 27 -23.9 27 -29 27 C-29.33 26.01 -29.66 25.02 -30 24 C-28 23 -28 23 -24.5859375 23.24609375 C-20.24822923 23.50956553 -16.06473594 23.74083549 -12 22 C-8.26989623 18.15092947 -6.62730362 12.92653375 -4.82226562 7.97900391 C-3.59010407 5.01347495 -1.87993256 2.5951243 0 0 Z " fill="#F3F3F3" transform="translate(393,93)"/>
<path d="M0 0 C0.8046875 2.19921875 0.8046875 2.19921875 1 4 C-3.98712199 4.36364431 -6.68772807 3.39010466 -11 0.9375 C-17.14231828 -2.35045184 -23.43252302 -4.69106598 -30.0625 -6.8125 C-30.94744141 -7.1019751 -31.83238281 -7.3914502 -32.74414062 -7.68969727 C-44.95872435 -11.49165423 -57.0094966 -12.3795642 -69.75 -12.3125 C-70.45277069 -12.31100952 -71.15554138 -12.30951904 -71.87960815 -12.3079834 C-82.54895009 -12.26734926 -92.61419502 -11.61627148 -103 -9 C-104.21300781 -8.73316406 -105.42601562 -8.46632813 -106.67578125 -8.19140625 C-143.30169243 0.51063178 -175.02916462 23.77986329 -203 48 C-203.78246094 48.66902344 -204.56492188 49.33804688 -205.37109375 50.02734375 C-218.2284411 61.28030807 -230.53326365 73.48839489 -241 87 C-241.98315771 88.19845766 -242.97047101 89.39351309 -243.9609375 90.5859375 C-263.86792861 114.5925743 -281.29477818 140.74727829 -294.90625 168.83984375 C-296 171 -296 171 -297 172 C-298.99958364 172.04080783 -301.00045254 172.04254356 -303 172 C-303.61370028 166.04548116 -301.45179866 161.88372233 -299.01953125 156.62109375 C-293.84908822 144.99537365 -289.71385416 133.12336637 -285.6875 121.0625 C-284.9476113 118.86506399 -284.20745414 116.66771835 -283.46704102 114.47045898 C-274.36986345 87.3917954 -265.75683173 60.16581083 -257.80419922 32.72851562 C-257.25900739 30.87876945 -256.69758292 29.03374466 -256.12158203 27.19335938 C-255.84556152 26.30970703 -255.56954102 25.42605469 -255.28515625 24.515625 C-254.9140271 23.35208496 -254.9140271 23.35208496 -254.53540039 22.16503906 C-253.83995856 19.72453787 -253.83995856 19.72453787 -254 16 C-265.42255536 33.5610546 -276.58962996 51.25457977 -287.43774414 69.17651367 C-294.24030385 80.41359066 -301.12063419 91.60193042 -308.01611328 102.78222656 C-310.67959778 107.10227649 -313.33935826 111.424612 -315.99853516 115.74731445 C-317.32951468 117.91035913 -318.66121692 120.07295927 -319.99365234 122.23510742 C-323.3789741 127.72993628 -326.75245221 133.23148383 -330.10546875 138.74609375 C-336.31003197 148.93550333 -342.55577095 159.103071 -349.125 169.0625 C-349.88719849 170.25927368 -349.88719849 170.25927368 -350.66479492 171.48022461 C-354.22818561 176.77167904 -354.22818561 176.77167904 -358.3671875 177.99609375 C-359.23601562 177.99738281 -360.10484375 177.99867188 -361 178 C-360.47988355 173.69969587 -359.56798763 170.77887701 -357.21875 167.1484375 C-356.34005249 165.77002686 -356.34005249 165.77002686 -355.44360352 164.36376953 C-354.48151978 162.88432861 -354.48151978 162.88432861 -353.5 161.375 C-352.12191102 159.21468051 -350.74568163 157.0531739 -349.37109375 154.890625 C-349.01313217 154.3296109 -348.65517059 153.7685968 -348.28636169 153.19058228 C-344.27746035 146.89648822 -340.41956634 140.51281206 -336.5625 134.125 C-335.12851893 131.75465389 -333.69337841 129.38501156 -332.2578125 127.015625 C-331.90329514 126.43039063 -331.54877777 125.84515625 -331.18351746 125.2421875 C-324.84795296 114.79209992 -318.41501452 104.40140924 -312 94 C-304.30499574 81.5171578 -296.61608396 69.03119054 -289 56.5 C-287.27400341 53.66489262 -285.54766301 50.82999479 -283.82128906 47.99511719 C-282.55558834 45.91366726 -281.29207407 43.83088683 -280.03027344 41.74707031 C-266.5085559 19.4268418 -266.5085559 19.4268418 -259.3125 9.125 C-258.84376465 8.44775879 -258.3750293 7.77051758 -257.89208984 7.07275391 C-255.29835668 3.44228285 -252.76812645 0.50173799 -249 -2 C-245.75 -2.3125 -245.75 -2.3125 -243 -2 C-241.37298805 -0.37298805 -241.75059409 1.37353705 -241.6875 3.625 C-241.78093747 10.30153208 -243.40191896 16.3139838 -245.30322266 22.65917969 C-246.03995671 25.13423438 -246.74566893 27.61687969 -247.44921875 30.1015625 C-252.89308281 49.08394075 -259.03269763 67.85199867 -265.09643555 86.64306641 C-265.46175385 87.77575455 -265.82707214 88.90844269 -266.20346069 90.07545471 C-266.89210731 92.20937607 -267.5817542 94.34297501 -268.27261353 96.47618103 C-270.25943152 102.62870152 -272.16964775 108.79909867 -274 115 C-273.34 115 -272.68 115 -272 115 C-271.72849121 114.42362793 -271.45698242 113.84725586 -271.17724609 113.25341797 C-269.08998207 109.25809509 -266.29839944 105.74383954 -263.625 102.125 C-263.00085205 101.27945557 -262.3767041 100.43391113 -261.73364258 99.56274414 C-256.15044914 92.07340527 -250.2250445 84.95947053 -244 78 C-243.34837891 77.26225342 -242.69675781 76.52450684 -242.02539062 75.7644043 C-236.26029224 69.28122633 -230.25675387 63.07352985 -224.125 56.9375 C-223.20847656 56.00873047 -222.29195312 55.07996094 -221.34765625 54.12304688 C-215.21066714 47.97311053 -208.78963073 42.41283302 -202 37 C-200.96063865 36.1249897 -199.92550241 35.24488019 -198.8984375 34.35546875 C-181.9422382 19.78783623 -162.94486641 7.40981559 -142.75439453 -2.16552734 C-141.22362104 -2.8936353 -139.70268729 -3.64235872 -138.18359375 -4.39453125 C-99.30335455 -23.09266155 -35.90305643 -28.93363959 0 0 Z " fill="#F5F5F5" transform="translate(366,31)"/>
<path d="M0 0 C2.1875 0.9375 2.1875 0.9375 5.1875 2.9375 C4.8575 3.5975 4.5275 4.2575 4.1875 4.9375 C3.28386719 5.2159375 2.38023437 5.494375 1.44921875 5.78125 C-2.25381181 7.09394107 -4.17394183 8.73850491 -7 11.4375 C-13.86931818 17.9375 -13.86931818 17.9375 -18.8125 17.9375 C-17.04912349 10.70765632 -12.78796465 6.05792579 -6.75 1.9375 C-4.11381713 0.40308058 -3.11031973 -0.06911822 0 0 Z " fill="#1D1D1D" transform="translate(299.8125,154.0625)"/>
<path d="M0 0 C0.99 0.33 1.98 0.66 3 1 C3 3.64 3 6.28 3 9 C-2.37330889 12.39366878 -6.86946489 12.32712342 -13 12 C-12.67539864 8.99909355 -12.12817102 8.10918272 -9.78515625 6.11328125 C-8.88667969 5.51902344 -7.98820313 4.92476562 -7.0625 4.3125 C-6.16660156 3.71050781 -5.27070313 3.10851562 -4.34765625 2.48828125 C-2 1 -2 1 0 0 Z " fill="#1D1D1D" transform="translate(145,174)"/>
<path d="M0 0 C1.65 0.33 3.3 0.66 5 1 C3.72936492 5.96702804 1.95657311 8.71893937 -2 12 C-2.99 12 -3.98 12 -5 12 C-4.52389341 7.00088076 -2.96837781 4.02167317 0 0 Z " fill="#EEEEEE" transform="translate(132,136)"/>
<path d="M0 0 C2.0625 0.4375 2.0625 0.4375 4 1 C3.55376936 6.0572806 1.49357358 8.50642642 -2 12 C-3.32 12 -4.64 12 -6 12 C-5.43958106 7.23643901 -3.41302403 3.41302403 0 0 Z " fill="#EEEEEE" transform="translate(228,136)"/>
<path d="M0 0 C0.33 0 0.66 0 1 0 C0.44854729 5.23880078 -0.42922093 9.97350697 -2 15 C-2.78375 14.814375 -3.5675 14.62875 -4.375 14.4375 C-6.97089775 13.74037734 -6.97089775 13.74037734 -9 15 C-7.61423779 11.13518578 -5.81080359 8.03192572 -3.4375 4.6875 C-2.81746094 3.80449219 -2.19742188 2.92148437 -1.55859375 2.01171875 C-0.78708984 1.01591797 -0.78708984 1.01591797 0 0 Z " fill="#202020" transform="translate(112,46)"/>
<path d="M0 0 C0.33 1.32 0.66 2.64 1 4 C-1.69634614 5.96496834 -4.39430081 7.92748977 -7.09765625 9.8828125 C-8.80685038 11.12962706 -10.50669451 12.38976501 -12.18359375 13.6796875 C-13.73513926 14.86086408 -15.36192933 15.94207936 -17 17 C-17.99 16.67 -18.98 16.34 -20 16 C-20 15.34 -20 14.68 -20 14 C-21.32 13.67 -22.64 13.34 -24 13 C-22.98292969 12.90525391 -22.98292969 12.90525391 -21.9453125 12.80859375 C-13.51019129 11.69870938 -6.63159746 8.53949683 -1.21875 1.7734375 C-0.8165625 1.18820313 -0.414375 0.60296875 0 0 Z " fill="#383838" transform="translate(143,165)"/>
<path d="M0 0 C1.65 0 3.3 0 5 0 C4.49890042 4.38462134 3.01704885 6.8000997 0 10 C-0.66 10 -1.32 10 -2 10 C-1.54177532 6.53058454 -1.10868317 3.32604951 0 0 Z " fill="#262626" transform="translate(94,136)"/>
<path d="M0 0 C2.97 0 5.94 0 9 0 C8.67 1.32 8.34 2.64 8 4 C6.68 3.67 5.36 3.34 4 3 C4 2.34 4 1.68 4 1 C2.68 0.67 1.36 0.34 0 0 Z " fill="#2A2A2A" transform="translate(119,178)"/>
</svg>
