<svg xmlns="http://www.w3.org/2000/svg" height="48" viewBox="0 96 960 960" width="48" fill="#EA3323">
  <path d="M480 816q12 0 21-9t9-21V453l106 106q9 9 21 9t21-9q9-9 9-21t-9-21L501 390q-4-4-9.5-6.5T480 381q-6 0-11 2.5t-9 6.5L312 517q-9 9-9 21t9 21q9 9 21 9t21-9l105-106v333q0 12 9 21t21 9ZM480 976q-84 0-158.5-31.5T187 856q-54-54-85.5-128T70 569q0-84 31.5-158.5T187 283q54-54 128-85.5T480 166q84 0 158.5 31.5T773 283q54 54 85.5 128T890 569q0 84-31.5 158.5T773 856q-54 54-128.5 85.5T480 976Zm0-407Z"/>
</svg>
