<?xml version="1.0" encoding="UTF-8"?>
<svg version="1.1" xmlns="http://www.w3.org/2000/svg" width="484" height="192">
<path d="M0 0 C159.72 0 319.44 0 484 0 C484 63.36 484 126.72 484 192 C324.28 192 164.56 192 0 192 C0 128.64 0 65.28 0 0 Z " fill="#171717" transform="translate(0,0)"/>
<path d="M0 0 C0.71559082 -0.00040283 1.43118164 -0.00080566 2.16845703 -0.0012207 C13.30913919 0.03497466 23.29966312 0.83886649 33.5625 5.4375 C34.58102051 5.87956787 34.58102051 5.87956787 35.62011719 6.33056641 C59.15161075 16.74268378 77.7847237 34.55078499 87.3125 58.66796875 C95.26590981 82.65247021 95.33953736 108.19663638 84.04077148 131.15771484 C79.99694568 138.88741099 75.53811671 146.04059677 69.5625 152.4375 C68.75425781 153.33597656 67.94601563 154.23445312 67.11328125 155.16015625 C52.70985745 170.44670968 32.43316009 181.48658414 11.23608398 182.61450195 C7.49065266 182.68146564 3.74593048 182.72233434 0 182.75 C-1.28197266 182.77900391 -2.56394531 182.80800781 -3.88476562 182.83789062 C-27.88108622 182.99536269 -48.78691436 171.41034545 -65.9375 155.375 C-85.59241235 135.12870091 -90.99910249 109.98142158 -90.7109375 82.62109375 C-90.50317932 74.63886005 -89.44634001 67.8926377 -86.4375 60.4375 C-86.20144043 59.83373535 -85.96538086 59.2299707 -85.72216797 58.60791016 C-76.84770175 36.33305716 -59.78340231 17.62543644 -37.9375 7.45703125 C-33.18739912 5.51988074 -28.35961212 3.87888577 -23.4375 2.4375 C-22.31472656 2.07914062 -21.19195312 1.72078125 -20.03515625 1.3515625 C-13.49859572 -0.23847442 -6.68956716 -0.00383576 0 0 Z " fill="#4C4C4C" transform="translate(95.4375,4.5625)"/>
<path d="M0 0 C0.72387405 -0.0038269 1.44774811 -0.00765381 2.19355774 -0.01159668 C3.72239577 -0.01431054 5.25128064 -0.00698602 6.7800293 0.00976562 C9.08946792 0.03103073 11.39574057 0.01003157 13.70507812 -0.015625 C26.41109428 -0.04207368 34.93321778 2.23711966 44.2890625 11.15234375 C50.33931883 17.88836954 51.87706446 25.40080958 51.85546875 34.22265625 C51.23157134 39.02666634 49.23071162 42.67871141 46.8359375 46.83984375 C45.04601081 50.25607502 43.97701914 52.95782949 45.0625 56.76367188 C45.40925781 57.50166016 45.75601563 58.23964844 46.11328125 59 C46.48195313 59.81855469 46.850625 60.63710937 47.23046875 61.48046875 C47.82214844 62.74310547 47.82214844 62.74310547 48.42578125 64.03125 C49.20898329 65.70259291 49.98029975 67.37956905 50.73828125 69.0625 C51.08503906 69.80048828 51.43179688 70.53847656 51.7890625 71.29882812 C52.58634446 74.09420627 52.29753144 75.77679326 51.42578125 78.53125 C47.679192 82.17376733 43.99184608 84.09314137 38.86328125 84.96875 C35.25200568 84.32057233 34.50682459 82.51030454 32.42578125 79.53125 C31.03510131 76.87953862 29.84515556 74.16155684 28.67578125 71.40625 C28.35996094 70.69082031 28.04414063 69.97539063 27.71875 69.23828125 C26.40306572 66.19113368 25.42578125 63.88446645 25.42578125 60.53125 C19.48578125 60.53125 13.54578125 60.53125 7.42578125 60.53125 C7.54406421 66.27533758 7.54406421 66.27533758 7.69604492 72.01855469 C7.73248198 75.52434846 7.75665706 77.90268356 6.1015625 81.046875 C3.19388672 83.62243862 0.21865901 83.73716778 -3.51171875 83.84375 C-4.79369141 83.89982422 -4.79369141 83.89982422 -6.1015625 83.95703125 C-9.49899051 83.3720081 -10.47344964 82.24621712 -12.57421875 79.53125 C-13.08888245 76.2298584 -13.08888245 76.2298584 -13.10766602 72.25585938 C-13.11628159 71.53018265 -13.12489716 70.80450592 -13.1337738 70.05683899 C-13.15644262 67.66252794 -13.14969442 65.26938638 -13.140625 62.875 C-13.14585996 61.20877738 -13.15213598 59.54255774 -13.15940857 57.87634277 C-13.1698142 54.38600713 -13.16524883 50.89607914 -13.15063477 47.40576172 C-13.13344003 42.93299346 -13.15694866 38.46150898 -13.19212437 33.98888397 C-13.2140843 30.5487212 -13.21266052 27.10886635 -13.20435905 23.6686554 C-13.20353887 22.01962373 -13.21041509 20.37056961 -13.22513008 18.72160339 C-13.24255303 16.41581269 -13.22805686 14.1123381 -13.20532227 11.80664062 C-13.2043605 10.49522095 -13.20339874 9.18380127 -13.20240784 7.8326416 C-12.57421875 4.53125 -12.57421875 4.53125 -10.25540161 2.10888672 C-6.81874051 0.08671851 -3.8796329 -0.04575623 0 0 Z " fill="#FAFAFA" transform="translate(240.57421875,54.46875)"/>
<path d="M0 0 C0.85464844 0.00386719 1.70929688 0.00773437 2.58984375 0.01171875 C6.03865444 0.43124232 8.23892122 1.40694371 10.59545898 3.99804688 C11.31971069 5.00448242 11.31971069 5.00448242 12.05859375 6.03125 C12.61144043 6.79074951 13.16428711 7.55024902 13.73388672 8.33276367 C14.3167041 9.15107666 14.89952148 9.96938965 15.5 10.8125 C16.10602051 11.64950439 16.71204102 12.48650879 17.33642578 13.34887695 C18.60701137 15.10575838 19.8738691 16.86534114 21.13720703 18.62744141 C23.04069972 21.28209682 24.95418836 23.92923649 26.87109375 26.57421875 C29.94282903 30.81462526 33.00594629 35.06113959 36.0625 39.3125 C36.07708252 38.27319336 36.09166504 37.23388672 36.10668945 36.16308594 C36.16473181 32.30124785 36.2419638 28.43998924 36.32495117 24.57861328 C36.3581727 22.90846167 36.38621334 21.23819854 36.40893555 19.56787109 C36.44253334 17.16455637 36.49484946 14.76226101 36.55078125 12.359375 C36.56036613 11.2419693 36.56036613 11.2419693 36.57014465 10.10198975 C36.68748164 5.94997361 36.97090694 3.23483162 40.0625 0.3125 C42.40234375 -0.1484375 42.40234375 -0.1484375 45 -0.0625 C45.85464844 -0.04960938 46.70929688 -0.03671875 47.58984375 -0.0234375 C50.15896432 0.32560574 51.79356662 1.1088457 54.0625 2.3125 C54.13197395 10.8659877 54.18529776 19.41935775 54.21793652 27.97305775 C54.23360056 31.94478627 54.25485199 35.91632193 54.28881836 39.88793945 C54.32138596 43.71993089 54.33934745 47.55173668 54.34713173 51.38385582 C54.35267996 52.84672659 54.36351425 54.30958707 54.37969017 55.77237892 C54.40143079 57.81958696 54.40446847 59.8660254 54.40307617 61.91333008 C54.40973801 63.07915115 54.41639984 64.24497223 54.42326355 65.44612122 C54.0625 68.3125 54.0625 68.3125 52.6945343 70.17655945 C50.38482137 71.78418288 48.61025525 71.8866831 45.8125 72 C44.89984375 72.06574219 43.9871875 72.13148438 43.046875 72.19921875 C38.25728296 70.77613316 36.02500587 67.18458269 33.0625 63.3125 C32.49402344 62.57153076 31.92554688 61.83056152 31.33984375 61.06713867 C29.59731009 58.74965862 27.88807539 56.41091364 26.1875 54.0625 C25.04487765 52.49434933 23.90163799 50.9266483 22.7578125 49.359375 C22.1793457 48.56595703 21.60087891 47.77253906 21.00488281 46.95507812 C17.39607346 42.04535559 13.7274712 37.18038161 10.0625 32.3125 C10.04791748 33.38733643 10.03333496 34.46217285 10.01831055 35.56958008 C9.9603511 39.55624717 9.88311871 43.54234801 9.80004883 47.52856445 C9.76678828 49.25405693 9.73875981 50.97965849 9.71606445 52.70532227 C9.68253847 55.18553166 9.63022594 57.6647403 9.57421875 60.14453125 C9.56463387 61.30248955 9.56463387 61.30248955 9.55485535 62.48384094 C9.40832838 67.81751942 9.40832838 67.81751942 7.67675781 70.29589844 C5.43505413 71.70764286 3.76047303 71.74603688 1.125 71.75 C0.27035156 71.76933594 -0.58429688 71.78867188 -1.46484375 71.80859375 C-4.79529945 71.14039806 -5.83565527 69.95724026 -7.9375 67.3125 C-8.43870544 64.42198181 -8.43870544 64.42198181 -8.43920898 61.03100586 C-8.44858994 59.75966293 -8.45797089 58.48832001 -8.46763611 57.17845154 C-8.45715889 55.79474208 -8.44579003 54.41103912 -8.43359375 53.02734375 C-8.43374876 51.60535101 -8.43523803 50.18335785 -8.43800354 48.7613678 C-8.43938675 45.78465037 -8.42684193 42.80841524 -8.40405273 39.83178711 C-8.37564173 36.01605697 -8.37841309 32.20112644 -8.39114285 28.38533688 C-8.39809636 25.45049709 -8.39031508 22.51584225 -8.37788582 19.58102608 C-8.37336989 18.17401399 -8.37303577 16.76698207 -8.37695122 15.35996819 C-8.37986051 13.39481206 -8.36120685 11.42965961 -8.34155273 9.46459961 C-8.33614975 8.34637314 -8.33074677 7.22814667 -8.32518005 6.07603455 C-7.9375 3.3125 -7.9375 3.3125 -6.55848694 1.45069885 C-4.31256527 -0.12630674 -2.72084451 -0.05318944 0 0 Z " fill="#FCFCFC" transform="translate(72.9375,63.6875)"/>
<path d="M0 0 C7.63990162 5.61952301 12.00374142 11.01122425 15 20 C15.78950166 30.96192696 14.66045607 39.54689803 7.6640625 48.21484375 C1.20785034 55.14087417 -6.38511321 58.10919415 -15.75 58.5625 C-24.84554073 58.34802851 -32.13763272 54.83953875 -38.9375 48.875 C-45.33642523 41.72326003 -47.97016045 32.71109157 -47.5390625 23.23828125 C-46.05074656 14.29760073 -41.42390247 7.24536425 -34.41015625 1.625 C-23.80930115 -5.52241608 -11.18925184 -6.64584544 0 0 Z " fill="#FAFAFA" transform="translate(344,81)"/>
<path d="M0 0 C1.546875 0.00193359 1.546875 0.00193359 3.125 0.00390625 C6.44939952 0.50527629 7.65939668 1.04245685 10 3.4375 C10.46655273 6.45263672 10.46655273 6.45263672 10.43359375 10.1171875 C10.44320207 11.45182406 10.45297279 12.78645946 10.46289062 14.12109375 C10.4543038 16.21677058 10.43750382 18.31213931 10.4152832 20.40771484 C10.4007067 22.43647691 10.41605333 24.46348656 10.43359375 26.4921875 C10.42384521 27.70374512 10.41409668 28.91530273 10.40405273 30.16357422 C11.16427941 34.33999363 12.75348661 35.79945956 16 38.4375 C18.00888517 39.20782815 18.00888517 39.20782815 20 39.0625 C20.639375 39.07539062 21.27875 39.08828125 21.9375 39.1015625 C25.24744493 38.03586053 26.79928746 36.08031798 29 33.4375 C29.72577003 30.11718478 29.72577003 30.11718478 29.6015625 26.4921875 C29.60956879 25.84049591 29.61757507 25.18880432 29.62582397 24.5173645 C29.64879316 22.44843329 29.63946503 20.3814821 29.625 18.3125 C29.62114978 16.23675039 29.62458727 14.16186443 29.64559937 12.08621216 C29.66320688 10.20843617 29.65573006 8.33047483 29.64697266 6.45263672 C30 3.4375 30 3.4375 31.33154297 1.54492188 C33.97728669 -0.21116439 36.3734085 0.04137438 39.5 0.0625 C40.6446875 0.05476563 41.789375 0.04703125 42.96875 0.0390625 C46 0.4375 46 0.4375 47.84375 1.8359375 C49.90483785 4.69082269 50.13265667 6.51663129 50.16113281 9.99145508 C50.17074036 10.93616165 50.1803479 11.88086823 50.19024658 12.85420227 C50.19449646 13.87813583 50.19874634 14.9020694 50.203125 15.95703125 C50.20882507 17.00775314 50.21452515 18.05847504 50.22039795 19.14103699 C50.22985652 21.36785879 50.23638532 23.59469464 50.24023438 25.8215332 C50.24993071 29.22567252 50.2809427 32.62920584 50.3125 36.03320312 C50.31903086 38.19530891 50.32428101 40.35741902 50.328125 42.51953125 C50.3404718 43.53739212 50.3528186 44.55525299 50.36553955 45.60395813 C50.33701237 54.67383095 50.33701237 54.67383095 47 58.4375 C44.07345473 59.41301509 42.05345004 59.60228088 39 59.625 C38.13375 59.63917969 37.2675 59.65335938 36.375 59.66796875 C34 59.4375 34 59.4375 31 57.4375 C29.8125 55.3125 29.8125 55.3125 29 53.4375 C27.6078125 54.6440625 27.6078125 54.6440625 26.1875 55.875 C22.25636938 59.28197987 18.61772924 59.85608096 13.53515625 59.7734375 C6.20293886 58.80183396 0.03203618 54.59846112 -4.41650391 48.80493164 C-10.02073861 40.42622922 -10.64227412 31.40041492 -10.52148438 21.58276367 C-10.49977169 19.47786646 -10.52152474 17.37628715 -10.546875 15.27148438 C-10.54423577 13.92186753 -10.53911919 12.57225273 -10.53125 11.22265625 C-10.52673828 10.01488525 -10.52222656 8.80711426 -10.51757812 7.56274414 C-9.48083141 1.30265229 -5.91957132 -0.11099196 0 0 Z " fill="#FAFAFA" transform="translate(376,78.5625)"/>
<path d="M0 0 C4.54054054 2.08108108 4.54054054 2.08108108 6 5 C6.07181821 7.71760108 6.09299506 10.40859388 6.0625 13.125 C6.05798828 13.87910156 6.05347656 14.63320312 6.04882812 15.41015625 C6.03703499 17.27347127 6.01909942 19.13674555 6 21 C6.83144531 20.98839844 7.66289062 20.97679688 8.51953125 20.96484375 C9.60621094 20.95582031 10.69289063 20.94679688 11.8125 20.9375 C12.89144531 20.92589844 13.97039062 20.91429688 15.08203125 20.90234375 C18 21 18 21 21 22 C23.98828879 26.48243318 23.69727604 30.75127375 23 36 C21.25 39.1875 21.25 39.1875 18 41 C13.90365345 41.39418679 10.1354442 41.22722221 6 41 C6.33 47.27 6.66 53.54 7 60 C8.588125 60.268125 10.17625 60.53625 11.8125 60.8125 C14.59569182 61.28238953 16.50446351 61.64205282 18.80078125 63.30078125 C21.0672738 66.51226093 20.50744634 70.24357907 20 74 C18.8410416 76.41869578 17.87677904 78.12322096 16 80 C0.22723035 81.11286842 0.22723035 81.11286842 -6 77 C-10.24922879 73.22714215 -12.67405327 69.56774853 -14 64 C-14.23403331 59.87119475 -14.18829512 55.75865841 -14.125 51.625 C-14.11597656 50.50738281 -14.10695313 49.38976562 -14.09765625 48.23828125 C-14.07418346 45.49196538 -14.04134728 42.74609528 -14 40 C-16.01822917 40.09765625 -18.03645833 40.1953125 -20.0546875 40.29296875 C-20.69664062 40.19628906 -21.33859375 40.09960938 -22 40 C-24.37184142 36.44223788 -24.29824394 34.71979393 -24.3125 30.5 C-24.32925781 29.3553125 -24.34601563 28.210625 -24.36328125 27.03125 C-24 24 -24 24 -22.91796875 22.09375 C-19.98705081 20.42235076 -17.29693475 20.81338105 -14 21 C-14.05800781 19.81921875 -14.11601562 18.6384375 -14.17578125 17.421875 C-14.22268643 15.86462289 -14.26818579 14.30732799 -14.3125 12.75 C-14.35439453 11.97269531 -14.39628906 11.19539063 -14.43945312 10.39453125 C-14.56255752 4.63324538 -14.56255752 4.63324538 -11.76171875 1.48046875 C-7.70177107 -0.69593884 -4.492618 -0.69179806 0 0 Z " fill="#F9F9F9" transform="translate(456,58)"/>
<path d="M0 0 C2.866875 -0.0825 5.73375 -0.165 8.6875 -0.25 C9.58170654 -0.28641602 10.47591309 -0.32283203 11.3972168 -0.36035156 C15.44692845 -0.41666694 17.50103852 -0.31241573 21.01953125 1.890625 C24.00703919 5.07258612 24.00703919 5.07258612 23.984375 8.05859375 C23.86835938 9.23615234 23.86835938 9.23615234 23.75 10.4375 C23.68296875 11.21996094 23.6159375 12.00242187 23.546875 12.80859375 C22.8956961 15.41796062 22.10493912 16.36115454 20 18 C17.29283758 18.90238747 15.76223232 19.11851302 12.98828125 19.09765625 C11.96408081 19.09390991 11.96408081 19.09390991 10.91918945 19.09008789 C10.05898193 19.08098389 9.19877441 19.07187988 8.3125 19.0625 C4.1978125 19.0315625 4.1978125 19.0315625 0 19 C0 12.73 0 6.46 0 0 Z " fill="#191919" transform="translate(248,76)"/>
<path d="M0 0 C3.6578218 2.03993908 5.66946174 3.50419262 8 7 C8.4606067 11.97455239 8.16781812 15.06753613 5 19 C2.11528002 21.32380221 0.24413376 21.96448964 -3.4375 22.5 C-8.19197325 21.83270551 -9.67221155 20.40702151 -13 17 C-14.20190901 13.39427296 -14.32670315 10.7897565 -14 7 C-10.43789452 1.27518762 -6.73064276 -0.80767713 0 0 Z " fill="#1C1C1C" transform="translate(331,97)"/>
</svg>
