<svg version="1.1" id="Layer_1" xmlns="http://www.w3.org/2000/svg" xmlns:xlink="http://www.w3.org/1999/xlink" x="0px" y="0px"
	 width="100%" viewBox="0 0 150 150" enable-background="new 0 0 150 150" xml:space="preserve">
<path fill="#010101" opacity="1.000000" stroke="none" 
	d="
M76.000000,151.000000 
	C50.687370,151.000000 25.874737,151.000000 1.031053,151.000000 
	C1.031053,101.062401 1.031053,51.124775 1.031053,1.093575 
	C50.895779,1.093575 100.791794,1.093575 150.843903,1.093575 
	C150.843903,50.999619 150.843903,100.999756 150.843903,151.000000 
	C126.125099,151.000000 101.312553,151.000000 76.000000,151.000000 
M105.648026,117.142662 
	C106.496002,116.942261 107.343971,116.741859 108.997742,116.439758 
	C113.350060,114.957924 117.725357,113.539642 122.048149,111.976173 
	C126.267044,110.450287 128.601913,107.776291 127.436668,102.479050 
	C129.103271,96.888306 129.103271,96.888306 118.828552,93.901657 
	C119.701408,86.928078 120.558083,80.083755 121.414764,73.239433 
	C121.759201,73.581642 122.103638,73.923851 122.448074,74.266060 
	C124.691956,72.301208 128.175095,70.667984 128.815704,68.274101 
	C129.403992,66.075691 126.929352,63.057659 125.308647,59.230640 
	C126.975487,56.746777 125.787025,53.416946 122.403793,50.675762 
	C118.871521,47.813831 114.769287,46.632317 110.932587,49.514370 
	C106.534309,52.818275 102.644470,56.799034 97.629250,61.296944 
	C89.768478,61.296944 80.380600,61.296982 70.992729,61.296932 
	C56.759579,61.296852 42.526234,61.336487 28.293409,61.268127 
	C24.813459,61.251411 20.952976,61.254570 20.016088,65.112144 
	C19.395216,67.668549 20.843430,70.727470 21.365387,73.561440 
	C20.223581,78.114151 18.784975,83.697105 23.084316,87.194992 
	C28.019567,91.210243 33.886349,94.781357 40.884987,94.505615 
	C41.948776,94.463707 43.048668,93.691414 44.011303,93.070152 
	C46.041401,91.759972 47.991638,90.326050 48.911636,89.684349 
	C53.158386,92.335777 56.363506,95.596565 60.062618,96.315445 
	C64.322884,97.143372 67.967361,97.879677 70.716103,102.299278 
	C72.724251,107.964966 74.067726,108.663841 79.579056,106.859032 
	C82.930405,108.856499 87.230705,110.123100 89.444130,112.996986 
	C94.765236,119.905838 94.747437,120.317421 102.550652,117.151489 
	C103.271469,116.859047 104.178940,117.026657 105.648026,117.142662 
z"/>
<path fill="#EEEDEE" opacity="1.000000" stroke="none" 
	d="
M70.398666,101.687103 
	C67.967361,97.879677 64.322884,97.143372 60.062618,96.315445 
	C56.363506,95.596565 53.158386,92.335777 48.911636,89.684349 
	C47.991638,90.326050 46.041401,91.759972 44.011303,93.070152 
	C43.048668,93.691414 41.948776,94.463707 40.884987,94.505615 
	C33.886349,94.781357 28.019567,91.210243 23.084316,87.194992 
	C18.784975,83.697105 20.223581,78.114151 21.365387,73.561440 
	C20.843430,70.727470 19.395216,67.668549 20.016088,65.112144 
	C20.952976,61.254570 24.813459,61.251411 28.293409,61.268127 
	C42.526234,61.336487 56.759579,61.296852 70.992729,61.296932 
	C80.380600,61.296982 89.768478,61.296944 97.629250,61.296944 
	C102.644470,56.799034 106.534309,52.818275 110.932587,49.514370 
	C114.769287,46.632317 118.871521,47.813831 122.403793,50.675762 
	C125.787025,53.416946 126.975487,56.746777 125.308647,59.230640 
	C126.929352,63.057659 129.403992,66.075691 128.815704,68.274101 
	C128.175095,70.667984 124.691956,72.301208 122.448074,74.266060 
	C122.103638,73.923851 121.759201,73.581642 121.414764,73.239433 
	C120.558083,80.083755 119.701408,86.928078 118.828552,93.901657 
	C129.103271,96.888306 129.103271,96.888306 126.950539,102.518921 
	C125.990082,101.359467 125.515762,100.160149 124.808853,98.671707 
	C118.707245,97.622574 112.838226,96.862556 106.622559,95.993652 
	C105.555779,95.781952 104.835640,95.679138 104.102448,95.414383 
	C103.996414,95.016106 103.823471,94.909210 103.421448,94.601318 
	C100.578491,90.093002 97.335167,87.400185 91.696472,90.077881 
	C85.676659,88.154251 84.680199,88.751785 82.659164,94.984421 
	C81.523712,95.056084 80.768478,95.125847 79.614197,95.091316 
	C76.472694,94.705605 73.730232,94.424179 70.656723,94.205132 
	C70.526207,95.216866 70.726738,96.166222 70.908165,97.090485 
	C70.889061,97.065392 70.843552,97.109390 70.761047,97.447800 
	C71.071480,98.562744 71.464409,99.339272 71.490570,100.506683 
	C70.882088,101.160744 70.640373,101.423920 70.398666,101.687103 
M92.908875,74.941780 
	C90.977867,75.874863 88.777702,76.496170 87.209717,77.849754 
	C86.150429,78.764206 85.327560,81.910004 85.514626,82.012032 
	C87.711723,83.210289 90.130127,84.671555 92.468079,84.635361 
	C93.498657,84.619408 94.688538,81.431747 95.394447,79.531166 
	C95.752350,78.567558 95.195854,77.264320 95.720604,75.849571 
	C97.427628,74.887756 99.134644,73.925949 101.576836,72.549904 
	C100.531448,77.642487 99.645615,81.957817 98.789406,86.128815 
	C100.634102,87.315811 102.198280,88.322304 103.824234,89.368538 
	C104.839806,83.221420 105.824860,77.259003 106.953255,70.428978 
	C105.703598,70.342247 103.482201,69.577034 101.774284,70.206039 
	C98.873421,71.274384 96.296089,73.221207 92.908875,74.941780 
M44.037067,70.076881 
	C44.888653,69.431404 45.726925,68.247932 46.593956,68.226471 
	C52.912807,68.070053 59.239571,68.064194 65.558327,68.225929 
	C66.722572,68.255714 67.861794,69.263138 70.034393,70.313194 
	C67.250999,71.126434 65.802147,71.474663 64.408340,71.975922 
	C62.649792,72.608337 60.936142,73.365601 59.203129,74.069016 
	C60.143551,75.670967 61.083973,77.272919 61.406555,77.822418 
	C59.050877,80.075165 55.775284,81.973915 54.740669,84.717690 
	C54.223598,86.088943 57.368721,89.741089 59.619980,91.056831 
	C63.529106,93.341515 67.532524,92.373283 70.558044,88.163452 
	C69.147377,87.640198 67.827118,87.937805 66.503204,87.955086 
	C64.378265,87.982826 62.181084,88.100220 60.164505,87.588425 
	C59.506798,87.421501 58.632183,84.828918 59.039310,84.349083 
	C60.369652,82.781174 62.245079,81.675774 63.736607,80.526733 
	C64.481903,82.396881 64.862976,83.353096 65.244049,84.309326 
	C66.253006,83.722839 67.652908,83.382454 68.203659,82.507530 
	C70.670692,78.588432 66.785866,77.752731 64.274117,76.202805 
	C72.104286,73.353073 72.104286,73.353073 72.406601,68.369965 
	C74.349327,68.369965 76.292007,68.369965 78.655045,68.369965 
	C77.151962,75.226311 75.712379,81.792984 74.292915,88.267906 
	C79.711060,90.853409 80.298134,90.566528 80.828392,85.347923 
	C81.198174,81.708725 81.084061,77.938217 82.058113,74.471367 
	C82.709862,72.151680 84.775772,68.572792 86.407242,68.461334 
	C95.147728,67.864243 103.950546,68.179497 113.112022,68.179497 
	C111.602089,75.222458 110.188065,81.818047 108.698051,88.768097 
	C110.768127,89.271523 112.434998,89.676895 114.666237,90.219513 
	C115.466286,82.577728 116.202721,75.543610 116.937111,68.528961 
	C119.582222,68.207756 121.961113,67.918877 124.339996,67.629997 
	C124.299919,67.234756 124.259834,66.839508 124.219757,66.444267 
	C122.076698,66.222466 119.933640,66.000656 117.369102,65.735229 
	C118.430519,63.009502 119.482285,60.758381 120.146797,58.398228 
	C120.445839,57.336140 120.232285,55.149338 119.805016,55.026604 
	C117.502899,54.365345 114.399117,53.106754 112.805580,54.078102 
	C109.570122,56.050289 104.710617,57.516918 105.771446,63.097095 
	C105.789558,63.192390 106.056831,63.240322 106.709862,63.856636 
	C107.488625,63.570656 108.267380,63.284679 109.594498,62.606956 
	C109.945518,62.033718 110.296532,61.460476 111.011375,60.658127 
	C111.367523,60.164581 111.723663,59.671036 112.762222,58.835629 
	C113.511665,59.015469 114.923965,59.306541 114.915138,59.359135 
	C114.541679,61.584644 114.041473,63.788887 113.534988,66.095688 
	C104.448357,66.095688 95.808388,66.167175 87.171074,66.047218 
	C84.911201,66.015839 82.652992,65.050064 80.405289,65.093719 
	C69.174461,65.311829 57.948849,65.787628 46.718452,66.042778 
	C39.724987,66.201660 32.725792,66.100807 25.730896,66.218819 
	C25.200661,66.227760 24.684233,67.055191 23.302788,68.236145 
	C29.259813,68.236145 34.157135,68.236145 39.357670,68.236145 
	C39.070042,70.106110 38.862610,71.454689 38.551552,73.476990 
	C34.677311,68.768631 31.383394,70.316322 28.556665,73.483253 
	C25.950039,76.403595 23.674507,79.915573 26.414112,83.785423 
	C28.954473,87.373833 32.231129,86.662148 35.729347,82.969086 
	C35.467281,85.549980 35.313705,87.062416 35.126282,88.908211 
	C37.092861,89.327194 38.765923,89.683640 40.563816,90.066689 
	C41.440010,85.341629 42.215527,81.159485 43.635605,76.744804 
	C44.835609,75.746178 46.035614,74.747551 47.377235,73.631073 
	C51.638706,79.259407 45.479549,81.737114 44.400536,85.687912 
	C50.067944,84.349106 54.651268,79.090210 53.794319,74.978622 
	C52.641312,69.446609 48.208260,70.977409 44.539207,70.966232 
	C44.375813,70.965736 44.212597,70.904877 44.037067,70.076881 
z"/>
<path fill="#E2DFDF" opacity="1.000000" stroke="none" 
	d="
M125.041443,98.960815 
	C125.515762,100.160149 125.990082,101.359467 126.718834,102.774185 
	C128.601913,107.776291 126.267044,110.450287 122.048149,111.976173 
	C117.725357,113.539642 113.350060,114.957924 108.529358,116.135239 
	C107.372490,114.888596 106.684013,113.946472 106.276657,112.999207 
	C106.744530,112.979408 106.931290,112.964752 107.488647,112.936958 
	C110.951805,111.848099 114.044373,110.772369 117.514595,109.623207 
	C122.745445,108.507355 123.459846,105.359726 122.432076,101.062744 
	C123.490822,100.282745 124.266129,99.621780 125.041443,98.960815 
z"/>
<path fill="#E2DFDF" opacity="1.000000" stroke="none" 
	d="
M104.999741,116.980644 
	C104.178940,117.026657 103.271469,116.859047 102.550652,117.151489 
	C94.747437,120.317421 94.765236,119.905838 89.444130,112.996986 
	C87.230705,110.123100 82.930405,108.856499 79.294785,106.305344 
	C79.006683,105.180244 79.002846,104.608826 79.313805,104.059311 
	C80.040901,104.164452 80.453201,104.247696 81.117538,104.564148 
	C84.256317,105.885590 87.143059,106.973831 90.090820,108.349503 
	C90.762314,109.085823 91.372772,109.534698 91.899162,110.244766 
	C92.461876,111.029625 93.108665,111.553291 94.041245,112.145447 
	C94.515648,112.266907 94.704262,112.319885 94.950531,112.674324 
	C96.364777,113.314827 97.721367,113.653870 99.115036,114.298943 
	C99.480446,114.425751 99.808784,114.246513 100.088257,114.070374 
	C100.039398,114.073471 100.062538,114.168610 100.333359,114.331055 
	C100.747185,114.338989 100.890205,114.184494 101.411362,114.008484 
	C102.545479,114.047455 103.301460,114.107941 104.081741,114.468216 
	C104.403954,115.505562 104.701843,116.243103 104.999741,116.980644 
z"/>
<path fill="#EEEDEE" opacity="1.000000" stroke="none" 
	d="
M78.999008,104.037407 
	C79.002846,104.608826 79.006683,105.180244 79.005554,106.180267 
	C74.067726,108.663841 72.724251,107.964966 70.557381,101.993187 
	C70.640373,101.423920 70.882088,101.160744 71.802917,100.570442 
	C73.010696,101.113754 73.539360,101.984192 74.059036,103.210495 
	C75.438713,107.114746 76.789948,106.062660 78.369827,103.619247 
	C78.739975,103.816002 78.869492,103.926704 78.999008,104.037407 
z"/>
<path fill="#EEEDEE" opacity="1.000000" stroke="none" 
	d="
M105.323883,117.061653 
	C104.701843,116.243103 104.403954,115.505562 104.075340,114.169815 
	C104.033920,113.373573 104.023209,113.175514 104.029617,112.792740 
	C104.046738,112.608017 104.030083,112.237061 104.274628,112.175850 
	C104.673462,112.048027 104.827759,111.981407 105.226173,111.992569 
	C105.636070,112.111526 105.801842,112.152710 105.977737,112.396400 
	C105.987854,112.598907 105.995537,113.004349 105.995537,113.004349 
	C106.684013,113.946472 107.372490,114.888596 108.126457,116.186096 
	C107.343971,116.741859 106.496002,116.942261 105.323883,117.061653 
z"/>
<path fill="#181818" opacity="1.000000" stroke="none" 
	d="
M106.207832,63.310356 
	C106.056831,63.240322 105.789558,63.192390 105.771446,63.097095 
	C104.710617,57.516918 109.570122,56.050289 112.805580,54.078102 
	C114.399117,53.106754 117.502899,54.365345 119.805016,55.026604 
	C120.232285,55.149338 120.445839,57.336140 120.146797,58.398228 
	C119.482285,60.758381 118.430519,63.009502 117.369102,65.735229 
	C119.933640,66.000656 122.076698,66.222466 124.219757,66.444267 
	C124.259834,66.839508 124.299919,67.234756 124.339996,67.629997 
	C121.961113,67.918877 119.582222,68.207756 116.937111,68.528961 
	C116.202721,75.543610 115.466286,82.577728 114.666237,90.219513 
	C112.434998,89.676895 110.768127,89.271523 108.698051,88.768097 
	C110.188065,81.818047 111.602089,75.222458 113.112022,68.179497 
	C103.950546,68.179497 95.147728,67.864243 86.407242,68.461334 
	C84.775772,68.572792 82.709862,72.151680 82.058113,74.471367 
	C81.084061,77.938217 81.198174,81.708725 80.828392,85.347923 
	C80.298134,90.566528 79.711060,90.853409 74.292915,88.267906 
	C75.712379,81.792984 77.151962,75.226311 78.655045,68.369965 
	C76.292007,68.369965 74.349327,68.369965 72.406601,68.369965 
	C72.104286,73.353073 72.104286,73.353073 64.274117,76.202805 
	C66.785866,77.752731 70.670692,78.588432 68.203659,82.507530 
	C67.652908,83.382454 66.253006,83.722839 65.244049,84.309326 
	C64.862976,83.353096 64.481903,82.396881 63.736607,80.526733 
	C62.245079,81.675774 60.369652,82.781174 59.039310,84.349083 
	C58.632183,84.828918 59.506798,87.421501 60.164505,87.588425 
	C62.181084,88.100220 64.378265,87.982826 66.503204,87.955086 
	C67.827118,87.937805 69.147377,87.640198 70.558044,88.163452 
	C67.532524,92.373283 63.529106,93.341515 59.619980,91.056831 
	C57.368721,89.741089 54.223598,86.088943 54.740669,84.717690 
	C55.775284,81.973915 59.050877,80.075165 61.406555,77.822418 
	C61.083973,77.272919 60.143551,75.670967 59.203129,74.069016 
	C60.936142,73.365601 62.649792,72.608337 64.408340,71.975922 
	C65.802147,71.474663 67.250999,71.126434 70.034393,70.313194 
	C67.861794,69.263138 66.722572,68.255714 65.558327,68.225929 
	C59.239571,68.064194 52.912807,68.070053 46.593956,68.226471 
	C45.726925,68.247932 44.888653,69.431404 43.997154,70.811386 
	C44.076153,73.434830 39.355618,74.462875 42.991043,76.977348 
	C42.215527,81.159485 41.440010,85.341629 40.563816,90.066689 
	C38.765923,89.683640 37.092861,89.327194 35.126282,88.908211 
	C35.313705,87.062416 35.467281,85.549980 35.729347,82.969086 
	C32.231129,86.662148 28.954473,87.373833 26.414112,83.785423 
	C23.674507,79.915573 25.950039,76.403595 28.556665,73.483253 
	C31.383394,70.316322 34.677311,68.768631 38.551552,73.476990 
	C38.862610,71.454689 39.070042,70.106110 39.357670,68.236145 
	C34.157135,68.236145 29.259813,68.236145 23.302788,68.236145 
	C24.684233,67.055191 25.200661,66.227760 25.730896,66.218819 
	C32.725792,66.100807 39.724987,66.201660 46.718452,66.042778 
	C57.948849,65.787628 69.174461,65.311829 80.405289,65.093719 
	C82.652992,65.050064 84.911201,66.015839 87.171074,66.047218 
	C95.808388,66.167175 104.448357,66.095688 113.534988,66.095688 
	C114.041473,63.788887 114.541679,61.584644 114.915138,59.359135 
	C114.923965,59.306541 113.511665,59.015469 112.198410,58.735622 
	C111.007523,58.811363 110.380455,58.987106 109.753387,59.162853 
	C110.051445,59.737648 110.349503,60.312443 110.647552,60.887238 
	C110.296532,61.460476 109.945518,62.033718 108.844688,62.824242 
	C107.465866,63.131134 106.836845,63.220745 106.207832,63.310356 
M30.646502,80.352745 
	C30.893513,81.214172 31.140526,82.075592 31.387537,82.937019 
	C31.939917,83.310104 32.492294,83.683182 33.044674,84.056267 
	C34.363117,82.150940 35.936329,80.362648 36.888760,78.289192 
	C37.341141,77.304352 37.021065,75.347290 36.278885,74.634247 
	C35.724857,74.101967 33.467136,74.424149 32.799267,75.140617 
	C31.749451,76.266830 31.399323,78.045258 30.646502,80.352745 
z"/>
<path fill="#E26F77" opacity="1.000000" stroke="none" 
	d="
M124.808853,98.671707 
	C124.266129,99.621780 123.490822,100.282745 122.093864,101.040268 
	C120.019585,102.164154 118.566940,103.191467 116.906845,103.937897 
	C114.647697,103.492691 112.596001,103.328354 109.878525,103.110695 
	C108.153915,99.667923 104.796509,99.870163 100.673462,101.836151 
	C99.858437,101.952644 99.392838,102.018631 98.554146,102.010330 
	C95.783424,101.187035 93.385796,100.438026 90.973572,99.478981 
	C90.958984,99.268951 90.895943,98.851875 90.980789,98.552399 
	C91.730484,97.870239 92.395325,97.487564 93.336838,97.354225 
	C96.450386,97.798058 99.847321,99.595551 101.440918,94.988495 
	C102.433678,94.950546 103.002113,94.941154 103.570541,94.931763 
	C103.823471,94.909210 103.996414,95.016106 104.201523,95.722099 
	C105.198837,96.162010 106.084023,96.132271 106.969200,96.102539 
	C112.838226,96.862556 118.707245,97.622574 124.808853,98.671707 
z"/>
<path fill="#850F13" opacity="1.000000" stroke="none" 
	d="
M90.988159,99.689011 
	C93.385796,100.438026 95.783424,101.187035 98.443222,102.219398 
	C98.494339,102.749161 98.236473,102.928139 97.608276,102.982574 
	C96.122162,102.603676 94.959557,102.281883 93.034744,101.749123 
	C93.952957,103.202797 94.433426,103.963463 94.694733,104.804077 
	C94.173370,105.031479 93.990250,105.270195 93.656342,105.785843 
	C92.929893,106.659286 92.473312,107.347061 91.685226,108.026398 
	C90.912422,108.032654 90.471115,108.047356 90.029800,108.062057 
	C87.143059,106.973831 84.256317,105.885590 81.022476,104.231720 
	C79.444405,101.778938 78.213440,99.891785 77.305099,97.945267 
	C78.422905,96.989136 79.218079,96.092369 80.013252,95.195610 
	C80.768478,95.125847 81.523712,95.056084 82.695587,95.210205 
	C83.265800,95.731766 83.509171,95.897995 84.008713,96.266312 
	C86.127426,97.389839 88.079765,98.179855 90.094391,99.201927 
	C90.156677,99.433990 90.513313,99.754333 90.513313,99.754333 
	C90.513313,99.754333 90.988159,99.689011 90.988159,99.689011 
z"/>
<path fill="#1A1A1A" opacity="1.000000" stroke="none" 
	d="
M93.582787,74.798828 
	C96.296089,73.221207 98.873421,71.274384 101.774284,70.206039 
	C103.482201,69.577034 105.703598,70.342247 106.953255,70.428978 
	C105.824860,77.259003 104.839806,83.221420 103.824234,89.368538 
	C102.198280,88.322304 100.634102,87.315811 98.789406,86.128815 
	C99.645615,81.957817 100.531448,77.642487 101.576836,72.549904 
	C99.134644,73.925949 97.427628,74.887756 95.200562,75.702866 
	C94.314606,75.303711 93.948692,75.051262 93.582787,74.798828 
z"/>
<path fill="#1B1B1B" opacity="1.000000" stroke="none" 
	d="
M43.313324,76.861076 
	C39.355618,74.462875 44.076153,73.434830 44.003265,71.209015 
	C44.212597,70.904877 44.375813,70.965736 44.539207,70.966232 
	C48.208260,70.977409 52.641312,69.446609 53.794319,74.978622 
	C54.651268,79.090210 50.067944,84.349106 44.400536,85.687912 
	C45.479549,81.737114 51.638706,79.259407 47.377235,73.631073 
	C46.035614,74.747551 44.835609,75.746178 43.313324,76.861076 
z"/>
<path fill="#191818" opacity="1.000000" stroke="none" 
	d="
M93.245834,74.870300 
	C93.948692,75.051262 94.314606,75.303711 94.866638,75.835388 
	C95.195854,77.264320 95.752350,78.567558 95.394447,79.531166 
	C94.688538,81.431747 93.498657,84.619408 92.468079,84.635361 
	C90.130127,84.671555 87.711723,83.210289 85.514626,82.012032 
	C85.327560,81.910004 86.150429,78.764206 87.209717,77.849754 
	C88.777702,76.496170 90.977867,75.874863 93.245834,74.870300 
z"/>
<path fill="#7D787B" opacity="1.000000" stroke="none" 
	d="
M103.421448,94.601318 
	C103.002113,94.941154 102.433678,94.950546 101.096443,94.945816 
	C98.539398,95.039558 96.751160,95.147423 94.713028,95.093056 
	C93.950859,94.627457 93.438583,94.324097 92.811752,93.702789 
	C92.493103,92.300415 92.289001,91.215988 92.084908,90.131561 
	C97.335167,87.400185 100.578491,90.093002 103.421448,94.601318 
z"/>
<path fill="#9CA0AA" opacity="1.000000" stroke="none" 
	d="
M91.696472,90.077881 
	C92.289001,91.215988 92.493103,92.300415 92.456268,93.710678 
	C89.424347,94.668602 86.633339,95.300697 83.842339,95.932785 
	C83.509171,95.897995 83.265800,95.731766 83.075806,95.208298 
	C84.680199,88.751785 85.676659,88.154251 91.696472,90.077881 
z"/>
<path fill="#674043" opacity="1.000000" stroke="none" 
	d="
M76.982475,98.004631 
	C78.213440,99.891785 79.444405,101.778938 80.770432,103.998512 
	C80.453201,104.247696 80.040901,104.164452 79.313797,104.059311 
	C78.869492,103.926704 78.739975,103.816002 78.143623,103.438705 
	C76.473862,103.066284 75.270935,102.960457 74.068016,102.854630 
	C73.539360,101.984192 73.010696,101.113754 72.169693,100.179565 
	C71.464409,99.339272 71.071480,98.562744 71.177673,97.405930 
	C72.788483,97.026299 73.900185,97.026947 75.186371,97.264130 
	C75.909180,97.672607 76.457489,97.844551 77.003906,98.006966 
	C77.002022,97.997437 76.982475,98.004631 76.982475,98.004631 
z"/>
<path fill="#912F3A" opacity="1.000000" stroke="none" 
	d="
M75.011879,97.027588 
	C73.900185,97.026947 72.788483,97.026299 71.260170,97.067520 
	C70.843552,97.109390 70.889061,97.065392 70.936462,96.718102 
	C70.985161,95.628128 70.986465,94.885445 70.987778,94.142761 
	C73.730232,94.424179 76.472694,94.705605 79.614197,95.091316 
	C79.218079,96.092369 78.422905,96.989136 77.305099,97.945267 
	C76.982475,98.004631 77.002022,97.997437 76.831924,97.767975 
	C76.111847,97.368202 75.561859,97.197899 75.011879,97.027588 
z"/>
<path fill="#161616" opacity="1.000000" stroke="none" 
	d="
M110.829468,60.772682 
	C110.349503,60.312443 110.051445,59.737648 109.753387,59.162853 
	C110.380455,58.987106 111.007523,58.811363 111.857193,58.906555 
	C111.723663,59.671036 111.367523,60.164581 110.829468,60.772682 
z"/>
<path fill="#DD707D" opacity="1.000000" stroke="none" 
	d="
M106.622559,95.993645 
	C106.084023,96.132271 105.198837,96.162010 104.214584,95.884033 
	C104.835640,95.679138 105.555779,95.781952 106.622559,95.993645 
z"/>
<path fill="#674043" opacity="1.000000" stroke="none" 
	d="
M70.656723,94.205132 
	C70.986465,94.885445 70.985161,95.628128 70.955566,96.743195 
	C70.726738,96.166222 70.526207,95.216866 70.656723,94.205132 
z"/>
<path fill="#161616" opacity="1.000000" stroke="none" 
	d="
M106.458847,63.583496 
	C106.836845,63.220745 107.465866,63.131134 108.570511,63.020111 
	C108.267380,63.284679 107.488625,63.570656 106.458847,63.583496 
z"/>
<path fill="#4F404B" opacity="1.000000" stroke="none" 
	d="
M105.967613,112.193893 
	C105.801842,112.152710 105.636070,112.111526 105.242752,111.696678 
	C105.021797,110.928078 105.028404,110.533134 105.154861,109.884964 
	C105.554710,109.391571 105.834709,109.151413 106.414940,108.916595 
	C107.164467,108.577377 107.613770,108.232803 108.354904,107.778900 
	C109.422234,107.413445 110.197723,107.157326 111.188591,107.200348 
	C112.798820,109.578606 116.703339,105.109329 117.136940,109.696640 
	C114.044373,110.772369 110.951805,111.848099 107.402138,112.673683 
	C106.619232,112.346992 106.293427,112.270439 105.967613,112.193893 
z"/>
<path fill="#382528" opacity="1.000000" stroke="none" 
	d="
M117.514595,109.623199 
	C116.703339,105.109329 112.798820,109.578606 111.477432,107.006424 
	C113.405373,105.748512 115.259834,104.983650 117.114296,104.218781 
	C118.566940,103.191467 120.019585,102.164154 121.810432,101.159302 
	C123.459846,105.359726 122.745445,108.507355 117.514595,109.623199 
z"/>
<path fill="#DDD3D9" opacity="1.000000" stroke="none" 
	d="
M105.977737,112.396400 
	C106.293427,112.270439 106.619232,112.346992 107.031555,112.686813 
	C106.931290,112.964752 106.744530,112.979408 106.276657,112.999207 
	C105.995537,113.004349 105.987854,112.598907 105.977737,112.396400 
z"/>
<path fill="#555A5F" opacity="1.000000" stroke="none" 
	d="
M99.077965,113.992905 
	C97.721367,113.653870 96.364777,113.314827 94.994980,112.319443 
	C95.632355,111.102028 96.282921,110.540947 97.123871,110.229263 
	C98.113472,110.638435 98.912697,110.798210 99.818939,110.961739 
	C99.925949,110.965492 100.136177,111.006340 100.127808,111.400841 
	C100.100479,112.586433 100.081505,113.377518 100.062531,114.168610 
	C100.062538,114.168610 100.039398,114.073471 99.821136,114.083328 
	C99.427910,114.059769 99.252937,114.026344 99.077965,113.992905 
z"/>
<path fill="#4B4857" opacity="1.000000" stroke="none" 
	d="
M96.933487,109.979866 
	C96.282921,110.540947 95.632355,111.102028 94.937332,112.017990 
	C94.704262,112.319885 94.515648,112.266907 94.131500,111.834976 
	C93.878120,111.029457 93.820267,110.602882 93.840927,109.791992 
	C93.964211,108.626534 94.008987,107.845383 94.379745,106.996109 
	C95.695808,107.376869 96.685890,107.825752 97.732315,108.537407 
	C97.503593,109.193398 97.218536,109.586632 96.933487,109.979866 
z"/>
<path fill="#DDD3D9" opacity="1.000000" stroke="none" 
	d="
M93.762421,110.176315 
	C93.820267,110.602882 93.878120,111.029457 93.845718,111.766495 
	C93.108665,111.553291 92.461876,111.029625 91.852753,110.234909 
	C91.890419,109.963867 91.879883,109.869370 92.186600,109.957733 
	C92.916344,110.089493 93.339386,110.132904 93.762421,110.176315 
z"/>
<path fill="#1B1B1B" opacity="1.000000" stroke="none" 
	d="
M100.333351,114.331055 
	C100.081505,113.377518 100.100479,112.586433 100.258240,111.396271 
	C100.652031,111.022774 100.907036,111.048027 101.115555,111.440643 
	C101.057121,112.548889 101.045166,113.289436 101.033218,114.029991 
	C100.890205,114.184494 100.747185,114.338989 100.333351,114.331055 
z"/>
<path fill="#7D787B" opacity="1.000000" stroke="none" 
	d="
M101.411362,114.008484 
	C101.045166,113.289436 101.057121,112.548889 101.391220,111.584869 
	C101.804138,111.547882 101.894913,111.734367 102.070999,112.235741 
	C102.775032,112.692902 103.393761,112.835182 104.012497,112.977463 
	C104.023209,113.175514 104.033920,113.373573 104.051025,113.870026 
	C103.301460,114.107941 102.545479,114.047455 101.411362,114.008484 
z"/>
<path fill="#010101" opacity="1.000000" stroke="none" 
	d="
M90.090820,108.349503 
	C90.471115,108.047356 90.912422,108.032654 91.675468,108.333023 
	C91.958092,109.055183 91.918983,109.462280 91.879883,109.869370 
	C91.879883,109.869370 91.890419,109.963867 91.936829,109.973724 
	C91.372772,109.534698 90.762314,109.085823 90.090820,108.349503 
z"/>
<path fill="#1B1B1B" opacity="1.000000" stroke="none" 
	d="
M99.115036,114.298950 
	C99.252937,114.026344 99.427910,114.059769 99.870003,114.080231 
	C99.808784,114.246513 99.480446,114.425751 99.115036,114.298950 
z"/>
<path fill="#E2DFDF" opacity="1.000000" stroke="none" 
	d="
M74.059036,103.210495 
	C75.270935,102.960457 76.473862,103.066284 77.902985,103.352661 
	C76.789948,106.062660 75.438713,107.114746 74.059036,103.210495 
z"/>
<path fill="#591424" opacity="1.000000" stroke="none" 
	d="
M101.437698,111.217178 
	C100.907036,111.048027 100.652031,111.022774 100.266602,111.001770 
	C100.136177,111.006340 99.925949,110.965492 99.845428,110.621918 
	C99.753212,109.596176 99.741501,108.914009 100.069534,108.341995 
	C101.951187,109.014175 103.493088,109.576187 105.035004,110.138191 
	C105.028404,110.533134 105.021797,110.928078 104.998627,111.618912 
	C104.827759,111.981407 104.673462,112.048027 103.949387,112.029297 
	C102.914963,111.936249 102.450333,111.928558 101.985695,111.920860 
	C101.894913,111.734367 101.804138,111.547882 101.437698,111.217178 
z"/>
<path fill="#DDD3D9" opacity="1.000000" stroke="none" 
	d="
M102.070999,112.235741 
	C102.450333,111.928558 102.914963,111.936249 103.704842,112.090500 
	C104.030083,112.237061 104.046738,112.608017 104.029617,112.792740 
	C103.393761,112.835182 102.775032,112.692902 102.070999,112.235741 
z"/>
<path fill="#EDEDED" opacity="1.000000" stroke="none" 
	d="
M30.699715,79.950134 
	C31.399323,78.045258 31.749451,76.266830 32.799267,75.140617 
	C33.467136,74.424149 35.724857,74.101967 36.278885,74.634247 
	C37.021065,75.347290 37.341141,77.304352 36.888760,78.289192 
	C35.936329,80.362648 34.363117,82.150940 33.044674,84.056267 
	C32.492294,83.683182 31.939917,83.310104 31.387537,82.937019 
	C31.140526,82.075592 30.893513,81.214172 30.699715,79.950134 
z"/>
<path fill="#DD707D" opacity="1.000000" stroke="none" 
	d="
M116.906845,103.937904 
	C115.259834,104.983650 113.405373,105.748512 111.262062,106.707291 
	C110.197723,107.157326 109.422234,107.413445 108.235863,107.439644 
	C106.927559,106.012444 106.030136,104.815147 105.241623,103.625885 
	C105.350540,103.633911 105.380295,103.384514 105.380295,103.384514 
	C105.380295,103.384514 105.101967,103.421120 104.783066,103.311890 
	C104.017883,103.212967 103.571602,103.223274 102.873535,103.037735 
	C102.088791,102.489807 101.555840,102.137726 101.022881,101.785637 
	C104.796509,99.870163 108.153915,99.667923 109.878525,103.110695 
	C112.596001,103.328354 114.647697,103.492691 116.906845,103.937904 
z"/>
<path fill="#CF8D9A" opacity="1.000000" stroke="none" 
	d="
M84.008713,96.266312 
	C86.633339,95.300697 89.424347,94.668602 92.570824,94.028625 
	C93.438583,94.324097 93.950859,94.627457 94.832260,95.323792 
	C94.487640,96.179466 93.773903,96.642174 93.060165,97.104881 
	C92.395325,97.487564 91.730484,97.870239 90.765808,98.586212 
	C90.465973,98.919510 90.032097,98.969864 90.032097,98.969864 
	C88.079765,98.179855 86.127426,97.389839 84.008713,96.266312 
z"/>
<path fill="#DD707D" opacity="1.000000" stroke="none" 
	d="
M93.336838,97.354225 
	C93.773903,96.642174 94.487640,96.179466 95.082153,95.486023 
	C96.751160,95.147423 98.539398,95.039558 100.672112,94.974373 
	C99.847321,99.595551 96.450386,97.798058 93.336838,97.354225 
z"/>
<path fill="#A2172A" opacity="1.000000" stroke="none" 
	d="
M100.673462,101.836151 
	C101.555840,102.137726 102.088791,102.489807 102.759781,103.358734 
	C101.898468,104.335945 100.899124,104.796318 99.680038,105.200066 
	C99.460289,105.143448 99.010376,105.081978 98.901474,104.814148 
	C98.505646,104.044098 98.218719,103.541893 97.931793,103.039688 
	C98.236473,102.928139 98.494339,102.749161 98.816307,102.293678 
	C99.392838,102.018631 99.858437,101.952644 100.673462,101.836151 
z"/>
<path fill="#DD707D" opacity="1.000000" stroke="none" 
	d="
M90.094391,99.201927 
	C90.032097,98.969864 90.465973,98.919510 90.680954,98.885696 
	C90.895943,98.851875 90.958984,99.268951 90.973572,99.478981 
	C90.988159,99.689011 90.513313,99.754333 90.513313,99.754333 
	C90.513313,99.754333 90.156677,99.433990 90.094391,99.201927 
z"/>
<path fill="#983F48" opacity="1.000000" stroke="none" 
	d="
M97.608276,102.982574 
	C98.218719,103.541893 98.505646,104.044098 98.681114,104.903183 
	C98.279015,105.413467 98.058174,105.636108 97.607018,105.804337 
	C96.509247,105.361816 95.711571,105.042969 94.913902,104.724121 
	C94.433426,103.963463 93.952957,103.202797 93.034744,101.749123 
	C94.959557,102.281883 96.122162,102.603676 97.608276,102.982574 
z"/>
<path fill="#7D787B" opacity="1.000000" stroke="none" 
	d="
M94.694733,104.804077 
	C95.711571,105.042969 96.509247,105.361816 97.723885,106.047714 
	C98.319962,106.722755 98.499062,107.030762 98.429550,107.574814 
	C98.012627,107.965446 97.844307,108.120049 97.675980,108.274643 
	C96.685890,107.825752 95.695808,107.376869 94.349518,106.629868 
	C93.970955,106.087898 93.948586,105.844032 93.926208,105.600166 
	C93.990250,105.270195 94.173370,105.031479 94.694733,104.804077 
z"/>
<path fill="#9F8D9A" opacity="1.000000" stroke="none" 
	d="
M93.656342,105.785843 
	C93.948586,105.844032 93.970955,106.087898 94.023544,106.697998 
	C94.008987,107.845383 93.964211,108.626534 93.840927,109.791992 
	C93.339386,110.132904 92.916344,110.089493 92.186600,109.957733 
	C91.918983,109.462280 91.958092,109.055183 92.006958,108.341469 
	C92.473312,107.347061 92.929893,106.659286 93.656342,105.785843 
z"/>
<path fill="#850F13" opacity="1.000000" stroke="none" 
	d="
M75.186371,97.264130 
	C75.561859,97.197899 76.111847,97.368202 76.833817,97.777496 
	C76.457489,97.844551 75.909180,97.672607 75.186371,97.264130 
z"/>
<path fill="#731318" opacity="1.000000" stroke="none" 
	d="
M99.899780,105.256683 
	C100.899124,104.796318 101.898468,104.335945 103.011566,103.554581 
	C103.571602,103.223274 104.017883,103.212967 104.761536,103.365074 
	C105.058907,103.527489 105.132706,103.617859 105.132706,103.617859 
	C106.030136,104.815147 106.927559,106.012444 107.944031,107.548981 
	C107.613770,108.232803 107.164467,108.577377 106.213181,108.708366 
	C103.792572,107.637909 101.873940,106.781029 99.946075,105.757423 
	C99.936836,105.590698 99.899780,105.256683 99.899780,105.256683 
z"/>
<path fill="#8D1225" opacity="1.000000" stroke="none" 
	d="
M99.955315,105.924149 
	C101.873940,106.781029 103.792572,107.637909 105.912964,108.703018 
	C105.834709,109.151413 105.554710,109.391571 105.154854,109.884964 
	C103.493088,109.576187 101.951187,109.014175 100.097214,108.291672 
	C99.785149,108.131172 99.895569,108.099464 99.930359,107.738342 
	C99.961868,106.892860 99.958588,106.408508 99.955315,105.924149 
z"/>
<path fill="#7D787B" opacity="1.000000" stroke="none" 
	d="
M99.757469,108.181503 
	C99.741501,108.914009 99.753212,109.596176 99.738419,110.618164 
	C98.912697,110.798210 98.113472,110.638435 97.123863,110.229263 
	C97.218536,109.586632 97.503593,109.193398 97.732315,108.537407 
	C97.844307,108.120049 98.012627,107.965446 98.595001,107.768692 
	C99.304558,107.850838 99.600060,107.975151 99.895569,108.099464 
	C99.895569,108.099464 99.785149,108.131172 99.757469,108.181503 
z"/>
<path fill="#A2172A" opacity="1.000000" stroke="none" 
	d="
M105.241623,103.625885 
	C105.132706,103.617859 105.058907,103.527489 105.080437,103.474304 
	C105.101967,103.421120 105.380295,103.384514 105.380295,103.384514 
	C105.380295,103.384514 105.350540,103.633911 105.241623,103.625885 
z"/>
<path fill="#591424" opacity="1.000000" stroke="none" 
	d="
M99.930359,107.738342 
	C99.600060,107.975151 99.304558,107.850838 98.843605,107.532646 
	C98.499062,107.030762 98.319962,106.722755 98.023987,106.171379 
	C98.058174,105.636108 98.279015,105.413467 98.790009,105.171021 
	C99.010376,105.081978 99.460289,105.143448 99.680038,105.200066 
	C99.899780,105.256683 99.936836,105.590698 99.946075,105.757423 
	C99.958588,106.408508 99.961868,106.892860 99.930359,107.738342 
z"/>
</svg>